<?xml version="1.0" standalone="no"?><!DOCTYPE svg PUBLIC "-//W3C//DTD SVG 1.1//EN" "http://www.w3.org/Graphics/SVG/1.1/DTD/svg11.dtd"><svg t="1736917465914" class="icon" viewBox="0 0 1024 1024" version="1.1" xmlns="http://www.w3.org/2000/svg" p-id="2506" xmlns:xlink="http://www.w3.org/1999/xlink" width="200" height="200"><path d="M577.194667 607.573333c-4.096-12.970667-9.216-25.6-14.336-38.229333-13.312-32.768-32.085333-61.44-60.757334-82.602667-3.413333-2.730667-6.826667-5.802667-10.24-8.533333-12.970667-10.581333-27.306667-18.432-43.690666-22.528-11.605333-2.730667-23.552-5.12-35.84-6.826667-32.768-4.778667-65.536-6.485333-98.645334-0.341333-37.205333 6.826667-66.56 25.258667-85.333333 58.709333-13.312 23.552-20.138667 48.128-16.725333 75.434667 1.365333 11.264 4.778667 21.504 12.288 29.696 4.096 4.778667 8.533333 8.874667 13.312 12.629333 12.970667 10.581333 27.306667 19.797333 42.325333 26.965334 20.48 9.557333 41.301333 18.432 61.781333 27.306666 14.677333 6.485333 29.354667 13.312 40.618667 24.917334 10.581333 10.581333 18.432 22.869333 25.6 36.181333l19.456 37.888c4.778667 9.216 10.922667 17.066667 19.797333 22.186667 20.821333 12.288 41.984 12.970667 63.488 1.706666 49.493333-25.6 74.069333-67.242667 76.458667-121.856 1.365333-24.576-2.048-49.152-9.557333-72.704zM569.344 500.736c2.048 26.624 19.797333 41.642667 46.421333 39.253333 12.629333-1.024 24.234667-5.12 35.498667-10.922666 26.624-13.653333 48.469333-33.450667 70.314667-59.050667 3.754667-5.461333 10.581333-13.994667 16.042666-23.210667 15.701333-25.941333 29.013333-52.565333 26.282667-83.968-1.024-11.264-4.437333-20.821333-12.629333-28.330666-8.874667-8.192-19.797333-10.24-31.402667-9.557334-13.312 0.682667-25.941333 4.778667-37.546667 11.264-49.834667 27.306667-84.650667 68.266667-105.813333 120.832-5.461333 13.994667-8.192 28.330667-7.168 43.690667zM449.877333 386.048c-1.024 9.216-1.024 18.090667 2.389334 26.965333 4.096 10.24 11.605333 16.384 22.528 18.432 7.168 1.365333 14.336 0.682667 21.162666-1.706666 8.874667-3.413333 18.090667-6.826667 26.624-11.946667 23.552-13.653333 42.666667-32.768 59.733334-53.589333l10.24-12.288c13.653333-18.432 25.6-38.229333 33.450666-59.733334 5.461333-15.36 9.557333-30.72 6.485334-47.445333-2.389333-14.336-12.288-24.234667-26.624-25.941333-7.509333-0.682667-14.677333 0.682667-21.845334 3.072-10.922667 3.413333-21.162667 8.874667-30.378666 15.36-37.546667 25.941333-65.536 59.733333-86.698667 99.669333-8.533333 15.36-14.677333 31.402667-17.066667 49.152zM805.205333 601.088c8.533333-15.701333 13.994667-32.085333 12.288-50.517333-2.048-21.504-16.384-36.181333-37.546666-39.253334a68.266667 68.266667 0 0 0-36.864 4.437334c-37.888 14.677333-64.853333 40.96-80.554667 78.848-4.778667 11.264-6.485333 23.210667-5.461333 35.157333 2.389333 21.504 16.042667 36.181333 37.546666 39.253333 12.629333 2.048 24.917333 0 36.864-4.096 23.893333-8.533333 43.349333-23.552 61.781334-45.397333 2.730667-4.096 7.850667-10.922667 11.946666-18.432zM371.029333 371.370667c11.946667-5.802667 21.504-14.677333 31.402667-26.965334 11.264-13.653333 20.138667-31.402667 26.282667-50.858666 6.826667-21.162667 7.168-42.666667 2.730666-64.512-4.096-20.821333-25.6-36.181333-48.128-28.330667-6.826667 2.389333-13.653333 5.802667-19.797333 9.898667-11.605333 7.850667-20.48 18.432-27.989333 30.037333-15.701333 24.576-24.917333 51.541333-25.258667 81.237333 0 11.605333 1.706667 22.869333 6.826667 33.109334 3.754667 7.850667 9.216 14.336 17.066666 18.090666 12.629333 6.485333 24.917333 4.096 36.864-1.706666z" p-id="2507"></path></svg>